<?xml version="1.0" encoding="UTF-8" standalone="no"?>
<svg
   xmlns:serif="http://www.serif.com/"
   xmlns:svg="http://www.w3.org/2000/svg"
   xmlns="http://www.w3.org/2000/svg"
   xmlns:xlink="http://www.w3.org/1999/xlink"
   xmlns:sodipodi="http://sodipodi.sourceforge.net/DTD/sodipodi-0.dtd"
   xmlns:inkscape="http://www.inkscape.org/namespaces/inkscape"
   inkscape:export-ydpi="96"
   inkscape:export-xdpi="96"
   inkscape:export-filename="/Users/alex/Documents/Code/divibot/divibot_logo.png"
   sodipodi:docname="divibot_logo.svg"
   inkscape:version="1.1-dev (48d18c81, 2020-07-08)"
   id="svg6"
   version="1.1"
   viewBox="0 0 210 297"
   height="297mm"
   width="210mm">
  <defs
     id="defs2">
    <linearGradient
       inkscape:collect="always"
       xlink:href="#linearGradient4167"
       id="linearGradient4672"
       gradientUnits="userSpaceOnUse"
       gradientTransform="matrix(1.0857107,0,0,1.0857107,2.3056818,-164.83114)"
       x1="402.37152"
       y1="915.92322"
       x2="384.4075"
       y2="806.28033" />
    <linearGradient
       inkscape:collect="always"
       id="linearGradient4167">
      <stop
         style="stop-color:#ffff00;stop-opacity:1;"
         offset="0"
         id="stop4169" />
      <stop
         style="stop-color:#ffff00;stop-opacity:0;"
         offset="1"
         id="stop4171" />
    </linearGradient>
    <linearGradient
       inkscape:collect="always"
       xlink:href="#linearGradient4183"
       id="linearGradient4675"
       gradientUnits="userSpaceOnUse"
       x1="397.6665"
       y1="972.90173"
       x2="366.4501"
       y2="816.83032"
       gradientTransform="translate(36.8091,-94.449019)" />
    <linearGradient
       inkscape:collect="always"
       id="linearGradient4183">
      <stop
         style="stop-color:#000000;stop-opacity:1;"
         offset="0"
         id="stop4185" />
      <stop
         style="stop-color:#000000;stop-opacity:0;"
         offset="1"
         id="stop4187" />
    </linearGradient>
    <linearGradient
       inkscape:collect="always"
       xlink:href="#linearGradient4159"
       id="linearGradient4678"
       gradientUnits="userSpaceOnUse"
       x1="377.17279"
       y1="987.5235"
       x2="372.08328"
       y2="827.16638"
       gradientTransform="translate(36.8091,-94.449019)" />
    <linearGradient
       inkscape:collect="always"
       id="linearGradient4159">
      <stop
         style="stop-color:#ff0000;stop-opacity:1;"
         offset="0"
         id="stop4161" />
      <stop
         style="stop-color:#ff0000;stop-opacity:0;"
         offset="1"
         id="stop4163" />
    </linearGradient>
    <linearGradient
       inkscape:collect="always"
       xlink:href="#linearGradient3785"
       id="linearGradient4681"
       gradientUnits="userSpaceOnUse"
       x1="532.61163"
       y1="515.01868"
       x2="462.27725"
       y2="446.07578"
       gradientTransform="translate(38.523329,-96.646249)" />
    <linearGradient
       id="linearGradient3785">
      <stop
         style="stop-color:#ff9900;stop-opacity:1;"
         offset="0"
         id="stop3787" />
      <stop
         style="stop-color:#ffffff;stop-opacity:1;"
         offset="1"
         id="stop3789" />
    </linearGradient>
    <linearGradient
       inkscape:collect="always"
       xlink:href="#linearGradient3785"
       id="linearGradient4595"
       gradientUnits="userSpaceOnUse"
       x1="475.32288"
       y1="482.37473"
       x2="457.71649"
       y2="436.65485" />
    <linearGradient
       inkscape:collect="always"
       xlink:href="#linearGradient3857"
       id="linearGradient4583"
       gradientUnits="userSpaceOnUse"
       x1="289.55499"
       y1="526.77795"
       x2="287.06577"
       y2="466.30676" />
    <linearGradient
       id="linearGradient3857">
      <stop
         style="stop-color:#0000ff;stop-opacity:1;"
         offset="0"
         id="stop3859" />
      <stop
         style="stop-color:#000000;stop-opacity:0;"
         offset="1"
         id="stop3861" />
    </linearGradient>
    <linearGradient
       inkscape:collect="always"
       xlink:href="#linearGradient3785"
       id="linearGradient4695"
       gradientUnits="userSpaceOnUse"
       x1="356.40964"
       y1="104.41735"
       x2="288.22116"
       y2="102.45306"
       gradientTransform="translate(7.8599888,209.45629)" />
    <linearGradient
       inkscape:collect="always"
       xlink:href="#linearGradient3785"
       id="linearGradient4561"
       gradientUnits="userSpaceOnUse"
       x1="365.11295"
       y1="127.82292"
       x2="313.37445"
       y2="126.4492" />
    <linearGradient
       inkscape:collect="always"
       xlink:href="#linearGradient4268"
       id="linearGradient4705"
       gradientUnits="userSpaceOnUse"
       x1="489.87357"
       y1="632.76532"
       x2="498.61963"
       y2="654.23102"
       gradientTransform="translate(38.709577,-93.572249)" />
    <linearGradient
       id="linearGradient4268">
      <stop
         style="stop-color:#ffffff;stop-opacity:1;"
         offset="0"
         id="stop4270" />
      <stop
         style="stop-color:#cecece;stop-opacity:1;"
         offset="1"
         id="stop4272" />
    </linearGradient>
    <linearGradient
       inkscape:collect="always"
       xlink:href="#linearGradient4268"
       id="linearGradient4708"
       gradientUnits="userSpaceOnUse"
       x1="544.40179"
       y1="686.0509"
       x2="530.45795"
       y2="684.62238"
       gradientTransform="translate(38.709577,-93.572249)" />
    <linearGradient
       inkscape:collect="always"
       xlink:href="#linearGradient4268"
       id="linearGradient4711"
       gradientUnits="userSpaceOnUse"
       x1="523.50446"
       y1="666.86493"
       x2="507.84833"
       y2="669.54352"
       gradientTransform="translate(38.709577,-93.572249)" />
    <linearGradient
       inkscape:collect="always"
       xlink:href="#linearGradient3785"
       id="linearGradient4714"
       gradientUnits="userSpaceOnUse"
       x1="504.01859"
       y1="584.16034"
       x2="514.05908"
       y2="607.1413"
       gradientTransform="translate(38.709577,-93.572249)" />
    <linearGradient
       inkscape:collect="always"
       xlink:href="#linearGradient4011"
       id="linearGradient4851"
       gradientUnits="userSpaceOnUse"
       gradientTransform="translate(39.893044,-96.378009)"
       x1="343.07144"
       y1="796.06476"
       x2="419.02679"
       y2="771.06476" />
    <linearGradient
       id="linearGradient4011">
      <stop
         style="stop-color:#969696;stop-opacity:1;"
         offset="0"
         id="stop4013" />
      <stop
         style="stop-color:#5a5a5a;stop-opacity:1;"
         offset="1"
         id="stop4015" />
    </linearGradient>
    <linearGradient
       inkscape:collect="always"
       xlink:href="#linearGradient3991"
       id="linearGradient4854"
       gradientUnits="userSpaceOnUse"
       gradientTransform="translate(39.893044,-96.378009)"
       x1="299.75"
       y1="756.40955"
       x2="273.39731"
       y2="644.98102" />
    <linearGradient
       id="linearGradient3991">
      <stop
         style="stop-color:#3366ff;stop-opacity:1;"
         offset="0"
         id="stop3993" />
      <stop
         style="stop-color:#ffffff;stop-opacity:1;"
         offset="1"
         id="stop3995" />
    </linearGradient>
    <linearGradient
       inkscape:collect="always"
       xlink:href="#linearGradient3966"
       id="linearGradient4857"
       gradientUnits="userSpaceOnUse"
       gradientTransform="translate(39.893044,-96.378009)"
       x1="181.86549"
       y1="532.22729"
       x2="240.01822"
       y2="436.26279" />
    <linearGradient
       id="linearGradient3966">
      <stop
         style="stop-color:#9cdafb;stop-opacity:1;"
         offset="0"
         id="stop3968" />
      <stop
         style="stop-color:#ffffff;stop-opacity:1;"
         offset="1"
         id="stop3970" />
    </linearGradient>
    <linearGradient
       inkscape:collect="always"
       xlink:href="#linearGradient3946"
       id="linearGradient4860"
       gradientUnits="userSpaceOnUse"
       gradientTransform="translate(39.893044,-96.378009)"
       x1="363.65851"
       y1="474.67557"
       x2="475.70157"
       y2="435.2796" />
    <linearGradient
       id="linearGradient3946">
      <stop
         style="stop-color:#9cdafb;stop-opacity:1;"
         offset="0"
         id="stop3948" />
      <stop
         style="stop-color:#1aa9f6;stop-opacity:1;"
         offset="1"
         id="stop3950" />
    </linearGradient>
    <linearGradient
       inkscape:collect="always"
       xlink:href="#linearGradient3933"
       id="linearGradient4863"
       gradientUnits="userSpaceOnUse"
       gradientTransform="translate(39.893044,-96.378009)"
       x1="375.05139"
       y1="587.9411"
       x2="385.1897"
       y2="521.77252" />
    <linearGradient
       id="linearGradient3933">
      <stop
         style="stop-color:#ff9900;stop-opacity:1;"
         offset="0"
         id="stop3935" />
      <stop
         style="stop-color:#8d5500;stop-opacity:1;"
         offset="1"
         id="stop3937" />
    </linearGradient>
    <linearGradient
       inkscape:collect="always"
       xlink:href="#linearGradient3914"
       id="linearGradient4866"
       gradientUnits="userSpaceOnUse"
       gradientTransform="translate(39.893044,-96.378009)"
       x1="362.79047"
       y1="690.60773"
       x2="438.36722"
       y2="604.74475" />
    <linearGradient
       id="linearGradient3914">
      <stop
         style="stop-color:#3366ff;stop-opacity:1;"
         offset="0"
         id="stop3916" />
      <stop
         style="stop-color:#00279c;stop-opacity:1;"
         offset="1"
         id="stop3918" />
    </linearGradient>
    <linearGradient
       inkscape:collect="always"
       xlink:href="#linearGradient4268"
       id="linearGradient4720"
       gradientUnits="userSpaceOnUse"
       x1="72.558929"
       y1="659.24072"
       x2="98.316963"
       y2="675.66931"
       gradientTransform="translate(40.039609,-95.438769)" />
    <linearGradient
       inkscape:collect="always"
       xlink:href="#linearGradient4268"
       id="linearGradient4723"
       gradientUnits="userSpaceOnUse"
       x1="160.53064"
       y1="707.23651"
       x2="151.63048"
       y2="759.73651"
       gradientTransform="translate(40.039609,-95.438769)" />
    <linearGradient
       inkscape:collect="always"
       xlink:href="#linearGradient3933"
       id="linearGradient4726"
       gradientUnits="userSpaceOnUse"
       x1="190.92856"
       y1="672.71936"
       x2="217.7784"
       y2="616.64789"
       gradientTransform="translate(40.039609,-95.438769)" />
    <linearGradient
       y2="436.65485"
       x2="457.71649"
       y1="482.37473"
       x1="475.32288"
       gradientUnits="userSpaceOnUse"
       id="linearGradient257"
       xlink:href="#linearGradient3785"
       inkscape:collect="always" />
    <linearGradient
       y2="466.30676"
       x2="287.06577"
       y1="526.77795"
       x1="289.55499"
       gradientUnits="userSpaceOnUse"
       id="linearGradient259"
       xlink:href="#linearGradient3857"
       inkscape:collect="always" />
  </defs>
  <sodipodi:namedview
     inkscape:window-maximized="0"
     inkscape:window-y="25"
     inkscape:window-x="2240"
     inkscape:window-height="1233"
     inkscape:window-width="1252"
     showgrid="false"
     inkscape:current-layer="layer1"
     inkscape:document-units="mm"
     inkscape:cy="592.85714"
     inkscape:cx="-118.57143"
     inkscape:zoom="0.35"
     inkscape:pageshadow="2"
     inkscape:pageopacity="0.0"
     borderopacity="1.0"
     bordercolor="#666666"
     pagecolor="#ffffff"
     id="base" />
  <g
     id="layer1"
     inkscape:groupmode="layer"
     inkscape:label="Layer 1">
    <g
       inkscape:label="Calque 1"
       id="layer1-9"
       transform="matrix(0.26458333,0,0,0.26458333,-11.188973,-34.605051)">
      <path
         style="fill:#000000;fill-opacity:1;stroke:#000000;stroke-width:8;stroke-linejoin:round;stroke-miterlimit:4;stroke-dasharray:none;stroke-opacity:1"
         d="m 352.88796,274.25076 c -0.82909,-0.008 -1.64893,0.005 -2.46875,0.0312 -12.07135,0.92958 -25.53391,3.01687 -35.3125,10.5 -9.97115,4.09223 -20.61633,9.41147 -26.03125,18.65625 -19.48691,8.80986 -37.47804,20.82238 -52.78125,35.90625 -33.11719,31.65521 -56.14236,73.00663 -68.65625,116.99999 14.56755,11.35665 33.28384,13.86804 51.3125,15.65625 7.78206,15.01623 15.55344,30.03718 23.375,45.03125 -3.0922,14.96309 -7.77914,29.58694 -14.875,43.09375 -0.68871,-0.062 -1.38793,-0.0888 -2.09375,-0.0937 -3.21442,-0.55248 -8.50973,2.46432 -9.0625,-2.4375 -4.13291,-8.5039 -11.44284,-17.70347 -21.84375,-17.4375 -11.803,2.10947 -20.35372,10.47796 -27.78125,19.53125 -11.92259,-9.97399 -27.41793,-15.53017 -43.09375,-14.5 -14.69805,0.29169 -27.069692,12.06041 -30.062492,26.15625 -2.76485,8.24101 -2.248306,20.94418 7.687492,23.71875 9.9031,2.56912 20.42086,-2.6939 30.1875,1.6875 5.24669,1.62746 10.19901,3.965 15.125,6.375 0.022,4.72008 0.86088,9.41775 2.6875,14 8.18284,25.81538 32.40547,42.71348 57.375,50.4375 14.58349,4.657 32.40387,3.88304 43.5625,-7.71875 13.92612,-13.9953 21.5322,-33.26954 26.125,-52.21875 1.17845,-7.13165 2.32284,-17.47198 -5.65625,-21.03125 -4.8928,-2.30662 -10.55902,-1.77304 -15.75,-0.90625 8.40105,-15.39279 14.08062,-32.45299 15.78125,-49.90625 18.12149,45.63079 36.18055,91.2586 54.21875,136.875 4.85675,1.01714 9.75652,1.86149 14.6875,2.5625 4.8183,14.36552 9.60761,28.74287 14.46875,43.09375 33.07335,8.20837 70.3072,7.31105 99.84375,-11.03125 7.33484,-4.1047 14.35618,-8.71613 20.96875,-13.90625 -0.30189,-14.38438 -0.49434,-28.77092 -0.75,-43.15625 1.03525,-0.62785 2.0706,-1.25569 3.09375,-1.90625 4.45783,-2.68877 7.6799,-7.0812 6.5625,-12.625 0.65836,-10.31294 1.31062,-20.6254 1.96875,-30.9375 7.07687,4.22484 14.59219,7.75463 22.15625,10.875 13.76101,4.80971 29.53457,3.65834 42.09375,-3.8125 13.22914,-2.27039 28.00301,-3.86904 37.5,-14.09375 6.41107,-8.18451 3.86108,-23.55737 -7.5625,-25.46875 -1.6072,-0.46201 -3.29399,-0.6614 -4.96875,-0.53125 -1.0817,-0.0656 -2.08845,0.0917 -3,0.40625 -0.37184,-5.78949 -3.8351,-11.29827 -10.0625,-11.6875 -0.20844,-0.0305 -0.41584,-0.0648 -0.625,-0.0937 -0.10467,-1.68329 -0.3341,-3.37757 -0.75,-5.03125 -0.0105,-0.0419 -0.0205,-0.0831 -0.0312,-0.125 -0.01,-0.0419 -0.0213,-0.0832 -0.0312,-0.125 -0.003,-0.01 0.003,-0.0217 0,-0.0312 -0.82119,-3.39279 -2.30023,-6.57646 -4.625,-9.0625 -0.0645,-0.0689 -0.12172,-0.15092 -0.1875,-0.21875 -0.95071,-1.05249 -2.0053,-1.97288 -3.1875,-2.71875 0.74158,-0.51827 1.43297,-1.09666 2.03125,-1.71875 2.00439,-1.48155 4.01265,-3.03809 2.71875,-4.15625 1.85472,-4.28671 1.76455,-9.45622 0.25,-13.96875 -0.51381,-2.73447 -1.28873,-5.46904 -2.09375,-8.1875 10.00436,-8.34219 18.99561,-17.82237 25.65625,-29.21875 5.21289,-7.88894 11.03967,-15.73278 15.0625,-24.25 0.55207,-0.10535 1.1066,-0.24373 1.65625,-0.375 21.45206,-3.87958 35.51144,-26.14876 28.34375,-45 -5.05072,-15.06666 -21.62438,-25.63634 -39.0625,-24.6875 -3.78984,0.0824 -7.43986,0.75057 -10.90625,1.875 -4.78631,-3.93206 -9.55745,-7.9011 -14.3125,-11.875 1.33779,-1.62024 1.51235,-3.39868 -1.375,-5.53125 -7.57372,-10.1994 -16.07977,-19.65553 -25.34375,-28.34374 -0.28099,-1.33088 -0.64258,-2.6312 -1.09375,-3.9375 -4.88881,-16.05481 -20.93339,-27.32356 -37.8125,-26.3125 -0.51582,0.0124 -1.02014,0.0264 -1.53125,0.0625 -22.47118,-13.16943 -47.19451,-22.56157 -72.6875,-27.46875 -8.77097,-1.69019 -17.63009,-2.87234 -26.53125,-3.5625 -6.69649,-8.80136 -20.22772,-10.47678 -30.46875,-10.875 -0.51389,0.0257 -0.9253,0.13618 -1.28125,0.28125 -3.436,-1.08784 -7.12848,-1.49427 -10.75,-1.53125 z m 178.9375,128.43749 c 6.12133,6.74329 12.24828,13.49558 18.34375,20.25 -0.36858,3.01829 -0.28007,6.10519 0.34375,9.1875 1.33606,9.85071 7.8148,18.37999 16.625,23.8125 -7.08157,10.92776 -16.42081,20.56261 -27.53125,27.1875 -4.34267,-4.65421 -10.28818,-8.14999 -16.8125,-7.6875 -10.54577,0.48433 -18.26565,10.53519 -18.84375,20.59375 -3.95759,0.0954 -7.79293,0.78365 -11.46875,1.9375 0.18677,-2.96904 0.37612,-5.9371 0.5625,-8.90625 2.41285,-1.42365 4.80827,-2.86031 7.1875,-4.34375 3.29535,-23.21247 6.6027,-46.42263 9.96875,-69.625 7.34437,-3.89036 14.55923,-8.0196 21.625,-12.40625 z"
         id="path4731"
         inkscape:connector-curvature="0" />
      <path
         inkscape:connector-curvature="0"
         style="fill:#000000;fill-opacity:1;stroke:none"
         d="m 245.7896,490.90498 -0.40625,3.6875 c -2.46928,22.90046 -7.74002,45.95612 -18.5,66.4375 -0.68871,-0.062 -1.38793,-0.0888 -2.09375,-0.0937 -3.21442,-0.55248 -8.50973,2.46432 -9.0625,-2.4375 -4.13291,-8.5039 -11.44284,-17.70347 -21.84375,-17.4375 -11.803,2.10947 -20.35372,10.47796 -27.78125,19.53125 -11.92259,-9.97399 -27.41792,-15.53017 -43.09374,-14.5 -14.69805,0.29169 -27.0697,12.06041 -30.062501,26.15625 -2.764855,8.24101 -2.248308,20.94418 7.687501,23.71875 9.9031,2.56912 20.42085,-2.6939 30.18749,1.6875 5.24669,1.62746 10.19901,3.965 15.125,6.375 0.022,4.72008 0.86088,9.41775 2.6875,14 8.18284,25.81538 32.40547,42.71348 57.375,50.4375 14.58349,4.657 32.40387,3.88304 43.5625,-7.71875 13.92612,-13.9953 21.5322,-33.26954 26.125,-52.21875 1.17845,-7.13165 2.32284,-17.47198 -5.65625,-21.03125 -4.8928,-2.30662 -10.55902,-1.77304 -15.75,-0.90625 12.57115,-23.03344 19.04337,-49.81368 15.21875,-76.0313 -7.88855,-6.57336 -15.80323,-13.11538 -23.71875,-19.65625 z"
         id="path4409" />
      <path
         inkscape:connector-curvature="0"
         style="fill:url(#linearGradient4726);fill-opacity:1;stroke:none"
         d="m 248.9771,498.71748 c 0,0 -1.78125,19.28571 -9.28125,42.5 -2.3069,7.1404 -5.48123,14.1756 -8.78125,20.53125 9.72229,2.51334 17.31101,10.62731 21.375,19.90625 3.45599,-6.54265 6.93836,-14.4226 9.53125,-23.3125 7.5,-25.71428 3.9375,-45.71875 3.9375,-45.71875 z"
         id="path4365" />
      <path
         style="fill:url(#linearGradient4723);fill-opacity:1;stroke:#000000;stroke-width:1px;stroke-linecap:butt;stroke-linejoin:miter;stroke-opacity:1"
         d="m 251.46818,591.92341 c 0,0 17.49999,-6.78571 20.71428,3.92857 3.21429,10.71429 -12.5,60.35715 -36.42856,69.28572 -23.92859,8.92857 -62.85715,-13.57143 -74.28572,-30.71429 -11.42858,-17.14286 -16.42858,-34.28571 -5.00001,-53.57143 11.42857,-19.28571 31.07143,-40.35714 42.5,-35 11.42857,5.35715 15.35714,20 15.35714,20 0,0 14.64286,-3.57143 24.28572,3.92857 9.64286,7.5 12.85714,22.14286 12.85714,22.14286 z"
         id="path4375"
         inkscape:connector-curvature="0" />
      <path
         inkscape:connector-curvature="0"
         style="fill:url(#linearGradient4720);fill-opacity:1;stroke:#000000;stroke-width:1px;stroke-linecap:butt;stroke-linejoin:miter;stroke-opacity:1"
         d="m 127.66461,550.06123 c -3.02844,-0.0153 -6.16965,0.22321 -9.40625,0.78125 -20.714287,3.57143 -26.075894,32.52232 -20.718751,38.59375 5.357141,6.07143 12.843751,1.78572 25.343751,2.5 6.36774,0.36387 15.70326,3.96732 23.28124,7.75 0.99125,-10.28954 5.54648,-20.33137 11.6875,-28.59375 1.86052,-2.37034 3.77179,-4.83886 5.71875,-7.3125 -7.36291,-6.46817 -20.08737,-13.63905 -35.90624,-13.71875 z"
         id="path4384" />
      <path
         sodipodi:nodetypes="cccccccccccccccccccccc"
         inkscape:connector-curvature="0"
         id="path4515"
         d="m 377.5225,286.55504 c -2.10315,-0.01 -4.20814,0.0169 -6.3125,0.0625 -49.83452,0.007 -99.88535,18.5516 -135.46875,53.625 -33.11719,31.65521 -56.14236,73.00663 -68.65625,116.99999 14.56755,11.35665 33.28384,13.86804 51.3125,15.65625 9.21491,17.78105 17.76236,37.08703 27.05615,54.82773 7.497,3.10287 16.29496,5.43774 24.07393,7.55996 18.47571,46.51734 36.3876,91.76611 54.77617,138.26856 4.85675,1.01714 9.75652,1.86149 14.6875,2.5625 4.8183,14.36552 9.60761,28.74287 14.46875,43.09375 33.07335,8.20837 70.3072,7.31105 99.84375,-11.03125 7.33484,-4.1047 14.35618,-8.71613 20.96875,-13.90625 -0.30189,-14.38438 -0.49434,-28.77092 -0.75,-43.15625 1.03525,-0.62785 2.0706,-1.25569 3.09375,-1.90625 4.45783,-2.68877 7.6799,-7.0812 6.5625,-12.625 3.12031,-48.87803 6.24417,-97.7437 9.3125,-146.625 2.41285,-1.42365 4.80827,-2.86031 7.1875,-4.34375 3.29535,-23.21247 6.6027,-46.42263 9.96875,-69.625 16.40381,-8.6892 32.17782,-18.57376 47.03125,-29.84375 3.46776,-2.7588 8.4039,-5.43664 3.15625,-9.3125 -33.11293,-44.59261 -84.00553,-75.5163 -138.46875,-85.99999 -14.44371,-2.78334 -29.12167,-4.21378 -43.84375,-4.28125 z"
         style="fill:#000000;fill-opacity:1;stroke:none" />
      <path
         inkscape:connector-curvature="0"
         id="path4517"
         d="m 171.69093,455.77153 c 0,0 36.99257,-148.91051 177.22428,-163.72928 140.23172,-14.81877 208.60486,88.18972 208.60486,88.18972 0,0 -68.83726,62.16653 -213.08876,82.76823 -144.2515,20.60169 -172.74038,-7.22867 -172.74038,-7.22867 z"
         style="fill:#9cdafb;fill-opacity:1;stroke:none" />
      <path
         inkscape:connector-curvature="0"
         id="path4519"
         d="m 505.26804,418.24699 c -64.80672,33.12691 -138.02327,48.5951 -210.34375,54.40625 -23.66645,1.46837 -47.90026,3.04259 -71.65625,1 l 25.71875,49.46875 c 0,0 55.06042,25.26127 126.78125,8.59375 71.72083,-16.66751 120.21875,-48.46875 120.21875,-48.46875 z"
         style="fill:#ff9900;fill-opacity:1;stroke:none" />
      <path
         sodipodi:nodetypes="ccccscc"
         inkscape:connector-curvature="0"
         id="path4521"
         d="m 488.36179,492.37199 c -26.39954,15.10355 -54.69427,26.74243 -83.78125,35.6875 -41.76679,14.04767 -87.39444,18.78774 -130.27617,8.2289 l 52.96367,133.8336 c 0,0 39.91305,9.59645 85.875,0 45.96194,-9.59645 65.65625,-27.78125 65.65625,-27.78125 z"
         style="fill:#3366ff;fill-opacity:1;stroke:none" />
      <path
         sodipodi:nodetypes="cccscc"
         inkscape:connector-curvature="0"
         id="path4523"
         d="m 469.58054,653.40324 c -37.74579,21.66758 -82.99681,28.52813 -126.1875,23.3125 l 13.11607,39.12054 c 0,0 31.93632,8.14756 61.5625,2 27.24021,-5.65247 52.13393,-25.49554 52.13393,-25.49554 z"
         style="fill:#969696;fill-opacity:1;stroke:none" />
      <path
         inkscape:connector-curvature="0"
         id="path4525"
         d="m 488.36179,492.37199 c -26.39954,15.10355 -54.69427,26.74243 -83.78125,35.6875 -14.99956,5.04489 -30.57082,8.73793 -46.34375,10.9375 56.61327,17.59474 100.87387,56.26389 119.09375,104.5625 0.94089,-0.75201 1.46875,-1.21875 1.46875,-1.21875 z"
         style="fill:url(#linearGradient4866);fill-opacity:1;stroke:none" />
      <path
         inkscape:connector-curvature="0"
         id="path4527"
         d="m 505.26804,418.24699 c -64.80672,33.12691 -138.02327,48.5951 -210.34375,54.40625 -8.98817,0.55767 -18.06167,1.11572 -27.15625,1.5 -1.8806,0.80115 -3.74291,1.60649 -5.65625,2.4375 116.36364,-2.12739 196.26504,-4.11984 233.875,6.59375 z"
         style="fill:url(#linearGradient4863);fill-opacity:1;stroke:none" />
      <path
         inkscape:connector-curvature="0"
         id="path4529"
         d="m 374.36179,290.59075 c -8.20394,0.0596 -16.67302,0.51133 -25.4375,1.4375 -1.49951,0.15846 -2.99277,0.34247 -4.46875,0.53125 61.35771,18.66705 104.5625,63.29879 104.5625,115.40624 0,10.98088 -1.92873,21.63639 -5.53125,31.78125 76.89755,-25.97354 114.03125,-59.5 114.03125,-59.5 0,0 -60.09718,-90.54968 -183.15625,-89.65624 z"
         style="fill:url(#linearGradient4860);fill-opacity:1;stroke:none" />
      <path
         inkscape:connector-curvature="0"
         id="path4531"
         d="m 334.17429,310.27825 c -66.51723,0 -131.9909,65.62363 -148.78125,147.84374 19.47596,7.42762 41.22663,7.64259 62,8.34375 3.37266,0.002 6.75305,-0.008 10.125,-0.0625 0.0108,-2.74023 0.0902,-5.50489 0.21875,-8.28125 3.16772,-68.42277 41.54785,-126.41999 91.875,-146.62499 -4.98533,-0.80824 -10.13804,-1.21875 -15.4375,-1.21875 z"
         style="fill:url(#linearGradient4857);fill-opacity:1;stroke:none" />
      <path
         inkscape:connector-curvature="0"
         id="path4533"
         d="m 289.64304,542.55949 45.65625,124.9375 c 13.67052,2.20678 27.63603,3.16486 41.5625,2.78125 l -24.6875,-126.46875 c -20.75676,2.31297 -41.89663,2.03233 -62.53125,-1.25 z"
         style="fill:url(#linearGradient4854);fill-opacity:1;stroke:none" />
      <path
         inkscape:connector-curvature="0"
         id="path4535"
         d="m 469.58054,653.40324 c -25.75032,14.7817 -54.98834,22.66494 -84.6875,24.53125 2.15006,1.20223 3.98729,2.4478 5.34375,3.75 8.92857,8.57143 11.8125,25 11.8125,25 0,0 -0.72768,-28.9241 12.84375,-26.78125 13.57143,2.14286 18.9375,25 18.9375,25 0,0 -0.37053,-26.78125 7.84375,-26.78125 8.21429,0 16.78125,21.78125 16.78125,21.78125 h 0.875 c 6.71592,-4.27356 10.875,-7.5625 10.875,-7.5625 z"
         style="fill:url(#linearGradient4851);fill-opacity:1;stroke:none" />
      <path
         id="path4619"
         d="m 584.24082,445.334 c -0.46259,0.008 -0.93484,0.0294 -1.40625,0.0937 -6.8061,0.32756 -13.81123,4.06603 -15.875,10.84375 -7.12404,11.16162 -16.60389,21.01067 -27.90625,27.75 -4.34267,-4.65421 -10.28818,-8.14999 -16.8125,-7.6875 -10.54577,0.48433 -18.26565,10.53519 -18.84375,20.59375 -22.72821,0.54779 -41.94355,19.95061 -44.625,42.125 -3.93509,17.92766 -5.04976,40.19739 9.25,53.875 11.24257,10.55248 25.17617,17.77503 39.28125,23.59375 13.76101,4.80971 29.53457,3.65834 42.09375,-3.8125 13.22914,-2.27039 28.00301,-3.86904 37.5,-14.09375 6.41107,-8.18451 3.86108,-23.55737 -7.5625,-25.46875 -1.6072,-0.46201 -3.29399,-0.6614 -4.96875,-0.53125 -1.0817,-0.0656 -2.08845,0.0917 -3,0.40625 -0.37184,-5.78949 -3.8351,-11.29827 -10.0625,-11.6875 -0.20844,-0.0305 -0.41584,-0.0646 -0.625,-0.0937 -0.10467,-1.68329 -0.3341,-3.37757 -0.75,-5.03125 -0.0105,-0.0419 -0.0205,-0.0831 -0.0312,-0.125 -0.01,-0.0419 -0.0212,-0.0832 -0.0312,-0.125 -0.003,-0.01 0.003,-0.0217 0,-0.0312 -0.82119,-3.39279 -2.30023,-6.57646 -4.625,-9.0625 -0.0645,-0.0689 -0.12172,-0.15092 -0.1875,-0.21875 -0.95071,-1.05249 -2.0053,-1.97288 -3.1875,-2.71875 0.74158,-0.51827 1.43297,-1.09666 2.03125,-1.71875 2.00439,-1.48155 4.01265,-3.03809 2.71875,-4.15625 1.85472,-4.28671 1.76455,-9.45622 0.25,-13.96875 -0.51381,-2.73447 -1.28873,-5.46904 -2.09375,-8.1875 10.00436,-8.34219 18.99561,-17.82237 25.65625,-29.21875 6.07567,-9.19463 12.99349,-18.31845 16.90625,-28.53125 -0.35695,-6.87406 -6.15496,-12.9296 -13.09375,-12.8125 z"
         style="fill:#000000;fill-opacity:1;stroke:none"
         inkscape:connector-curvature="0" />
      <path
         sodipodi:nodetypes="csccscc"
         inkscape:connector-curvature="0"
         id="path4621"
         d="m 533.35243,491.11136 c 0,0 6.60714,-0.71429 20.71428,-13.39286 14.10715,-12.67857 19.64286,-25.35714 19.64286,-25.35714 18.94036,-9.34391 19.64286,6.42857 19.64286,6.42857 0,0 -22.14286,38.39286 -35.53572,49.28572 -13.39285,10.89285 -16.96428,13.39285 -16.96428,13.39285 0,0 -10.35714,-10.71428 -7.5,-30.35714 z"
         style="fill:#ff9900;fill-opacity:1;stroke:none" />
      <path
         sodipodi:nodetypes="ssccssssscscsccccscscccccss"
         inkscape:connector-curvature="0"
         id="path4623"
         d="m 522.67832,480.334 c -8.38603,0.27321 -13.93461,7.96273 -15,14.78125 -1.13127,7.24012 1,19.46875 1,19.46875 0,0 -4.52871,-3.80726 -4.78125,-13.65625 0,0 -34.61644,-0.50747 -41.6875,40.65625 -7.07107,41.16372 6.06297,48.99302 27.78125,62.125 21.71828,13.13199 38.39166,14.66228 52.28125,7.84375 13.8896,-6.81852 23.48652,-11.35453 21.71875,-22.71875 -1.76776,-11.36421 -25.25238,-10.37421 -34.34375,-7.34375 -9.09138,3.03045 -16.15625,4.5625 -16.15625,4.5625 0,0 7.30504,-25.26998 -1.28125,-41.9375 -8.5863,-16.66751 -20.4375,-17.65625 -20.4375,-17.65625 0,0 17.92385,0.7573 25.5,18.6875 7.57614,17.93021 2.53125,35.34375 2.53125,35.34375 l 7.1875,-1.96875 c 8.34389,-7.57094 16.93858,-15.57477 28.28125,-17.46875 0.42229,-0.0271 0.83112,-0.0131 1.25,0 -0.13851,-3.04007 -0.81937,-6.30702 -2.625,-9.34375 -5.55584,-9.34391 -13.02395,-2.14435 -19.96875,-6.4375 0,0 12.18856,0.41153 18.4375,-7.46875 3.00155,-3.78513 0.94452,-12.52936 -1.07143,-19.45982 -8.18154,4.61995 -9.20704,6.52808 -10.45982,10.36607 -6.22535,-5.58344 -10.11352,-15.39096 -11.40625,-23.5625 -0.0154,-5.44843 -2.29712,-12.31019 1.4375,-16.9375 1.5326,-0.6559 3.02279,-1.39083 4.5,-2.15625 -2.2779,-2.33796 -4.88218,-4.21519 -7.75,-5.0625 -1.7362,-0.51297 -3.38453,-0.70685 -4.9375,-0.65625 z"
         style="fill:#ffffff;stroke:none" />
      <path
         id="path4625"
         d="m 566.77207,483.2715 c -6.77938,-0.18616 -24.41439,10.14564 -33.875,16 0.30621,9.34085 3.5256,15.89036 5.78125,19.34375 3.58079,-3.32989 9.33398,-8.40904 15.4375,-12.53125 9.9693,-6.7331 22.08668,-22.55353 12.65625,-22.8125 z"
         style="fill:url(#linearGradient4714);fill-opacity:1;stroke:none"
         inkscape:connector-curvature="0" />
      <path
         sodipodi:nodetypes="scccsss"
         inkscape:connector-curvature="0"
         id="path4627"
         d="m 549.86899,566.96807 c -3.93907,1.54019 -9.94411,6.14082 -13.19067,8.83468 0.90279,0.31777 4.9195,-0.58036 6.5625,-0.3125 6.99067,-0.30003 16.10585,0.90753 21.1875,6.0625 1.20794,-1.58701 2.84375,-4.12157 2.84375,-6.15625 0,-3.21429 0.10714,-8.82589 -5.39182,-9.91325 -5.49896,-1.08735 -8.07219,-0.0554 -12.01126,1.48482 z"
         style="fill:url(#linearGradient4711);fill-opacity:1;stroke:none" />
      <path
         id="path4629"
         d="m 575.14707,576.584 c -1.45321,0.0198 -2.99494,0.39245 -4.71875,1.25 -0.50383,2.73689 -1.59078,5.48368 -3.21875,7.9375 0.28143,0.67971 0.5141,1.38986 0.6875,2.15625 1.86982,7.954 -2.97135,14.72102 -9.25,19.375 9.13464,-2.17026 20.83409,-5.74163 24.40625,-10.28125 6.06092,-7.70241 2.54062,-17.42227 -1.5,-18.9375 -2.27284,-0.85232 -4.26575,-1.52913 -6.40625,-1.5 z"
         style="fill:url(#linearGradient4708);fill-opacity:1;stroke:none"
         inkscape:connector-curvature="0" />
      <path
         id="path4631"
         d="m 529.64707,535.2715 c -5.87342,0 -11.44737,1.01443 -16.46875,2.78125 1.54402,1.99931 2.93354,4.34792 4.09375,7.09375 7.57614,17.93021 2.53125,35.34375 2.53125,35.34375 l 7.1875,-1.96875 c 8.34389,-7.57094 16.93858,-15.57477 28.28125,-17.46875 0.42229,-0.0271 0.83112,-0.0131 1.25,0 -0.13851,-3.04007 -0.81937,-6.30702 -2.625,-9.34375 -5.55584,-9.34391 -13.02395,-2.14435 -19.96875,-6.4375 0,0 9.97135,0.33417 16.5,-5.4375 -6.05496,-2.87168 -13.16351,-4.5625 -20.78125,-4.5625 z"
         style="fill:url(#linearGradient4705);fill-opacity:1;stroke:none"
         inkscape:connector-curvature="0" />
      <path
         inkscape:connector-curvature="0"
         id="path4609"
         d="m 586.43035,392.35121 c -22.2795,0.48451 -40.52225,20.66583 -36.47529,40.66179 2.67212,19.70141 25.97412,34.113 47.17962,29.0485 21.45206,-3.87958 35.52245,-26.16935 28.35476,-45.02059 -5.05072,-15.06666 -21.62097,-25.63854 -39.05909,-24.6897 z"
         style="fill:#000000;fill-opacity:1;stroke:none" />
      <circle
         r="34.218918"
         cy="463.06445"
         cx="472.62512"
         transform="matrix(1.0331183,0,0,0.93845108,100.0993,-6.9116893)"
         id="path4611"
         style="fill:#ff9900;fill-opacity:1;stroke:none" />
      <circle
         r="34.218918"
         cy="463.06445"
         cx="472.62512"
         style="fill:url(#linearGradient257);fill-opacity:1;stroke:none"
         id="path4613"
         transform="matrix(0.91875096,0,0,0.8345635,154.15217,41.194951)" />
      <path
         id="path4551"
         d="m 352.32873,275.14379 c -0.82909,-0.008 -1.64893,0.005 -2.46875,0.0312 -12.07135,0.92958 -25.53391,3.01687 -35.3125,10.5 -12.21903,5.01478 -25.47829,11.85975 -28.84375,25.53125 -1.58981,11.26334 10.48055,18.34158 20.125,19.78125 26.93933,4.90091 55.6813,-1.34266 78.6875,-15.875 8.10697,-5.0927 16.78374,-15.57916 11.8125,-25.5625 -5.96737,-10.80533 -20.89772,-12.72576 -31.96875,-13.15625 -0.51389,0.0257 -0.9253,0.13618 -1.28125,0.28125 -3.436,-1.08784 -7.12848,-1.49427 -10.75,-1.53125 z"
         style="fill:#000000;fill-opacity:1;stroke:none"
         inkscape:connector-curvature="0" />
      <ellipse
         ry="12.753176"
         rx="31.693537"
         cy="127.18872"
         cx="340.29514"
         transform="matrix(0.93370637,-0.152392,0,0.97134576,22.338173,220.76486)"
         id="path4553"
         style="fill:#ff9900;fill-opacity:1;stroke:none" />
      <path
         inkscape:connector-curvature="0"
         id="path4555"
         d="m 369.16978,280.61094 c 2.98166,1.65994 4.71875,3.87323 4.71875,6.5625 0,7.99764 -15.14204,17.00681 -33.8125,20.125 -18.67046,3.11819 -33.8125,-0.84611 -33.8125,-8.84375 0,-1.9771 0.91906,-4.03461 2.59375,-6.03125 -11.79052,6.13306 -19.3125,13.75661 -19.3125,20.84375 0,12.47805 23.34131,18.6463 52.15625,13.78125 28.81494,-4.86505 52.1875,-18.9282 52.1875,-31.40625 0,-8.11386 -9.88745,-13.551 -24.71875,-15.03125 z"
         style="fill:#ff9900;fill-opacity:1;stroke:none" />
      <ellipse
         ry="12.753176"
         rx="31.693537"
         cy="127.18872"
         cx="340.29514"
         style="fill:url(#linearGradient4561);fill-opacity:1;stroke:none"
         id="path4557"
         transform="matrix(0.76425874,-0.12473613,0,0.79506739,80.000375,233.77432)" />
      <path
         inkscape:connector-curvature="0"
         id="path4559"
         d="m 377.76353,286.45469 c -0.14458,11.56038 -12.76867,17.13726 -22,20.71875 -15.08575,5.48872 -33.04839,8.15611 -47.90625,0.6875 -2.43773,-1.61554 -4.46671,-3.98677 -5.28125,-6.84375 -4.62795,3.21282 -11.71719,9.74649 -7.6875,15.6875 8.49621,8.84123 22.30585,7.83688 33.71692,7.72075 20.7135,-1.39331 42.78711,-7.07207 58.09558,-21.72075 3.74587,-3.64859 4.55108,-10.74414 -0.96875,-13.15625 -2.30672,-1.43304 -5.65657,-3.25477 -7.96875,-3.09375 z"
         style="fill:url(#linearGradient4695);fill-opacity:1;stroke:none" />
      <ellipse
         ry="33.57143"
         rx="17.232143"
         cy="504.86218"
         cx="287.23215"
         transform="matrix(0.94882165,0,0,1.0083047,53.894594,-100.25858)"
         id="path4567"
         style="fill:#000000;stroke:none" />
      <ellipse
         ry="33.57143"
         rx="17.232143"
         cy="504.86218"
         cx="287.23215"
         style="fill:url(#linearGradient259);fill-opacity:1;stroke:none"
         id="path4569"
         transform="matrix(0.82808083,0,0,0.87999446,88.575244,-35.479589)" />
      <ellipse
         ry="33.57143"
         rx="17.232143"
         cy="504.86218"
         cx="287.23215"
         transform="matrix(0.41361896,0,0,0.43954936,202.622,176.17021)"
         id="path4571"
         style="fill:#ffffff;stroke:none" />
      <ellipse
         ry="33.57143"
         rx="17.232143"
         cy="504.86218"
         cx="287.23215"
         style="fill:#000000;stroke:none"
         id="path4577"
         transform="matrix(0.70011699,0,0,0.91787917,65.687699,-49.427579)" />
      <ellipse
         ry="33.57143"
         rx="17.232143"
         cy="504.86218"
         cx="287.23215"
         transform="matrix(0.6110247,0,0,0.80107589,91.277875,9.5419811)"
         id="path4579"
         style="fill:url(#linearGradient4583);fill-opacity:1;stroke:none" />
      <ellipse
         ry="33.57143"
         rx="17.232143"
         cy="504.86218"
         cx="287.23215"
         style="fill:#ffffff;stroke:none"
         id="path4581"
         transform="matrix(0.30520137,0,0,0.40013024,175.43075,202.21087)" />
      <path
         sodipodi:nodetypes="cccsccc"
         inkscape:connector-curvature="0"
         id="path4585"
         d="m 368.85126,445.4659 c 0,0 38.51206,-26.39024 41.54252,-51.26524 -4.79822,-3.78807 -27.14784,-4.04061 -27.14784,-4.04061 0,0 25.25381,-16.66752 46.46702,-4.54569 16.78484,9.59133 9.59644,33.33503 9.59644,33.33503 0,0 -6.06091,-15.15229 -12.87944,-17.42513 -16.92006,37.12311 -57.5787,43.94164 -57.5787,43.94164 z"
         style="fill:#000000;stroke:none" />
      <path
         inkscape:connector-curvature="0"
         id="path4589"
         d="m 496.64538,318.07298 c -21.56529,0.51629 -39.22324,22.02122 -35.30601,43.32863 2.58646,20.99352 25.14148,36.35031 45.6672,30.95365 20.76438,-4.13403 34.38372,-27.88567 27.4458,-47.97329 -4.88881,-16.05481 -20.92788,-27.32005 -37.80699,-26.30899 z"
         style="fill:#000000;fill-opacity:1;stroke:none" />
      <circle
         r="34.218918"
         cy="463.06445"
         cx="472.62512"
         transform="translate(25.904474,-107.37584)"
         id="path4591"
         style="fill:#ff9900;fill-opacity:1;stroke:none" />
      <circle
         r="34.218918"
         cy="463.06445"
         cx="472.62512"
         style="fill:url(#linearGradient4595);fill-opacity:1;stroke:none"
         id="path4593"
         transform="matrix(0.88929889,0,0,0.88929889,78.224594,-56.114099)" />
      <path
         inkscape:connector-curvature="0"
         id="path4599"
         d="m 506.74208,344.82251 c -9.13099,0.76528 -10.66828,12.25417 -8.03125,19.25 2.63517,10.59065 13.08866,16.15325 19.09525,24.68004 12.50272,13.76584 24.97134,27.47362 37.37349,41.25745 12.22494,-0.35865 27.57794,0.33059 35.71875,-10.53125 3.52371,-4.87859 2.95216,-13.37075 -3.40625,-15.5625 -23.60981,-18.64938 -45.94828,-39.07125 -70.3125,-56.59374 -3.20038,-1.67993 -6.77841,-2.84186 -10.43749,-2.5 z"
         style="fill:#000000;fill-opacity:1;stroke:none" />
      <path
         inkscape:connector-curvature="0"
         id="path4601"
         d="m 519.73474,353.53876 69.32172,56.82107 c 0,0 1.38896,8.20749 -7.82868,12.12183 -9.21765,3.91434 -24.24366,3.53553 -24.24366,3.53553 l -53.033,-58.46257 c 0,0 -5.3033,-13.76333 0.25253,-17.67767 5.55584,-3.91434 15.5311,3.66181 15.5311,3.66181 z"
         style="fill:#ff9900;fill-opacity:1;stroke:none" />
      <path
         sodipodi:nodetypes="sscccss"
         inkscape:connector-curvature="0"
         id="path4603"
         d="m 507.55458,352.82251 c -4.14583,1.28077 -1.73803,7.92807 -0.625,10.75 3.3056,8.38098 11.99146,13.08402 17.20504,20.29532 11.53583,12.70364 23.07164,25.40728 34.60745,38.11092 8.71656,-0.73358 20.46192,-1.83286 25.90625,-10.05409 -30.55313,-23.01772 -50.92038,-42.90124 -71.4375,-57.6334 -1.55909,-1.1195 -3.75565,-2.0559 -5.65624,-1.46875 z"
         style="fill:url(#linearGradient4681);fill-opacity:1;stroke:none" />
      <path
         sodipodi:nodetypes="sccssccs"
         inkscape:connector-curvature="0"
         id="path4643"
         d="m 360.56299,798.30905 c 10.35406,39.39595 54.80078,51.0127 54.80078,51.0127 5.3033,39.90103 -14.14214,43.94164 -14.14214,43.94164 0,0 63.38707,-17.42513 79.80205,-75.5089 16.41498,-58.08377 -22.72843,-94.19673 -39.14341,-104.80333 -16.41498,-10.6066 -32.07234,-13.63706 -32.07234,-13.63706 l -31.56727,23.48605 c 0,0 -28.03173,36.11295 -17.67767,75.5089 z"
         style="fill:url(#linearGradient4678);fill-opacity:1;stroke:none" />
      <path
         id="path4645"
         d="m 409.15285,693.14472 c -0.53989,0.01 -1.04531,0.0922 -1.53125,0.28125 -14.96411,12.71714 -34.96907,21.14662 -43.09375,40.15625 -13.48355,25.14821 -17.73897,57.95033 -2.65625,83.28125 10.60873,17.83799 28.57306,30.23727 47.90625,36.9375 1.15828,11.75765 1.33155,27.37519 -10.375,34 -3.8113,2.59941 -6.39071,6.38495 -9,10.125 17.19948,3.96899 32.41122,-7.07331 46.71875,-14.75 33.4034,-20.45983 56.82347,-58.80694 53.71875,-98.8125 -2.7772,-41.59701 -34.2718,-78.61247 -74.28125,-89.46875 -2.31532,-0.42007 -5.06673,-1.79167 -7.40625,-1.75 z m 0.65625,6.15625 c 0,0 15.64752,3.04965 32.0625,13.65625 16.41498,10.6066 55.57123,46.72873 39.15625,104.8125 -15.27977,54.06686 -71.20529,72.87185 -78.875,75.21875 3.76866,-1.39476 17.8272,-8.98313 13.21875,-43.65625 0,0 -44.45844,-11.6353 -54.8125,-51.03125 -10.35406,-39.39595 17.6875,-75.5 17.6875,-75.5 z"
         style="fill:url(#linearGradient4675);fill-opacity:1;stroke:none"
         inkscape:connector-curvature="0" />
      <path
         inkscape:connector-curvature="0"
         id="path4647"
         d="m 398.77481,723.01336 c 0,0 -21.38631,35.36966 -6.58041,58.12688 14.80591,22.75721 21.74099,20.27869 36.0623,34.8501 7.8106,7.947 6.98449,23.27676 6.98449,23.27676 0,0 19.19284,-15.08007 20.28957,-59.49778 1.09673,-44.4177 -23.0314,-66.62655 -25.77324,-66.07818 -2.74183,0.54836 -30.98271,9.32222 -30.98271,9.32222 z"
         style="fill:url(#linearGradient4672);fill-opacity:1;stroke:none"
         sodipodi:nodetypes="csscssc" />
    </g>
    <g
       transform="matrix(0.15859125,0,0,0.15875,12.611546,120.17097)"
       id="g329"
       style="clip-rule:evenodd;fill-rule:evenodd;stroke-linejoin:round;stroke-miterlimit:1.41421">
      <g
         id="Layer-1"
         serif:id="Layer 1">
        <g
   transform="translate(654.172,668.359)"
   id="g263">
            <path
   d="m 0,-322.648 c -114.597,0 -218.172,13.779 -296.172,36.229 v -5.071 c -78,25.095 -127.681,59.959 -127.681,98.506 0,6.077 1.345,12.062 3.703,17.931 l -7.984,14.321 c 0,0 -6.413,8.359 4.935,25.999 10.01,15.554 60.164,76.438 86.628,108.32 11.367,16.348 19.083,26.413 19.757,25.44 1.061,-1.543 -7.064,-32.229 -29.639,-67.242 -10.533,-18.805 -23.358,-43.719 -30.908,-62.12 21.081,13.342 49.189,25.445 81.189,35.861 v -0.159 c 78,22.453 181.575,36.229 296.172,36.229 131.156,0 248.828,-18.046 327.828,-46.491 V -276.153 C 248.828,-304.6 131.156,-322.648 0,-322.648"
   style="fill:#a52b00;fill-rule:nonzero"
   id="path261" />

        </g>

        <g
   transform="translate(1099.87,554.94)"
   id="g267">
            <path
   d="m 0,-50.399 -13.433,-27.828 c 0.071,-1.056 0.124,-2.114 0.124,-3.175 0,-31.548 -32.805,-60.62 -87.997,-83.901 V 2.499 c 25.751,-10.864 46.645,-22.984 61.586,-36.037 -4.398,17.683 -19.437,53.455 -31.428,78.611 -19.707,35.981 -26.845,67.303 -25.929,68.853 0.584,0.978 7.307,-9.393 17.222,-26.2 C -56.783,54.85 -13.063,-7.914 -4.325,-23.901 5.574,-42.024 0,-50.399 0,-50.399"
   style="fill:#a52b00;fill-rule:nonzero"
   id="path265" />

        </g>

        <g
   transform="translate(1177.87,277.21)"
   id="g271">
            <path
   d="m 0,227.175 -88.296,-65.043 c -0.83,-2.895 -1.66,-5.787 -2.516,-8.658 l 29.002,-42.016 c 2.961,-4.274 3.558,-9.829 1.635,-14.703 -1.925,-4.85 -6.136,-8.327 -11.117,-9.179 l -49.043,-8.321 c -1.898,-3.879 -3.89,-7.698 -5.889,-11.484 l 20.604,-47.172 c 2.119,-4.806 1.673,-10.39 -1.139,-14.751 -2.797,-4.383 -7.551,-6.942 -12.617,-6.743 l -49.77,1.809 c -2.577,-3.356 -5.194,-6.68 -7.866,-9.946 l 11.438,-50.56 c 1.159,-5.132 -0.302,-10.508 -3.879,-14.238 -3.555,-3.716 -8.722,-5.254 -13.636,-4.05 l -48.478,11.919 c -3.14,-2.775 -6.33,-5.513 -9.559,-8.196 l 1.745,-51.907 c 0.188,-5.254 -2.262,-10.247 -6.468,-13.163 -4.204,-2.934 -9.54,-3.376 -14.138,-1.196 l -45.226,21.502 c -3.64,-2.09 -7.302,-4.16 -11.005,-6.163 l -7.991,-51.148 c -0.812,-5.181 -4.146,-9.584 -8.815,-11.594 -4.655,-2.022 -9.99,-1.367 -14.077,1.71 l -40.321,30.253 c -3.97,-1.318 -7.958,-2.583 -11.996,-3.792 l -17.38,-48.504 c -1.766,-4.945 -5.842,-8.576 -10.81,-9.597 -4.953,-1.012 -10.048,0.703 -13.483,4.539 l -33.938,37.971 c -4.104,-0.471 -8.21,-0.901 -12.327,-1.259 l -26.208,-44.154 c -2.656,-4.472 -7.344,-7.193 -12.397,-7.193 -5.041,0 -9.739,2.721 -12.372,7.193 l -26.214,44.154 c -4.119,0.358 -8.244,0.788 -12.341,1.259 l -33.943,-37.971 c -3.437,-3.836 -8.551,-5.551 -13.487,-4.539 -4.966,1.035 -9.045,4.652 -10.806,9.597 l -17.393,48.504 c -4.027,1.209 -8.017,2.482 -11.997,3.792 l -40.308,-30.253 c -4.098,-3.088 -9.432,-3.741 -14.098,-1.71 -4.65,2.01 -7.997,6.413 -8.803,11.594 l -7.997,51.148 c -3.7,2.003 -7.363,4.062 -11.014,6.163 l -45.222,-21.502 c -4.592,-2.189 -9.952,-1.738 -14.135,1.196 -4.201,2.916 -6.656,7.909 -6.466,13.163 l 1.736,51.907 c -3.219,2.683 -6.403,5.421 -9.558,8.196 l -48.47,-11.919 c -4.925,-1.195 -10.086,0.334 -13.65,4.05 -3.585,3.73 -5.039,9.106 -3.885,14.238 l 11.415,50.56 c -2.649,3.279 -5.27,6.59 -7.839,9.946 l -49.771,-1.809 c -5.023,-0.148 -9.817,2.36 -12.623,6.743 -2.812,4.361 -3.237,9.945 -1.146,14.751 l 20.619,47.172 c -2.003,3.786 -3.992,7.605 -5.906,11.484 l -49.04,8.321 c -4.982,0.841 -9.183,4.316 -11.12,9.179 -1.925,4.874 -1.3,10.429 1.639,14.703 l 29.01,42.016 c -0.224,0.741 -0.43,1.49 -0.653,2.233 l -82.021,87.122 c 0,0 -12.56,9.851 5.73,33.002 16.14,20.421 98.993,101.376 142.752,143.789 18.483,21.532 31.143,34.866 32.466,33.712 2.088,-1.832 -8.871,-41.006 -45.275,-86.97 -28.06,-41.239 -64.478,-104.666 -55.939,-111.977 0,0 9.714,-12.331 29.204,-21.207 0.713,0.571 -0.737,-0.565 0,0 0,0 411.314,189.736 792.846,3.21 43.584,-7.817 69.968,15.529 69.968,15.529 9.099,5.276 -14.463,70.495 -33.838,113.666 -26.353,49.023 -30.217,87.276 -27.982,88.602 1.409,0.842 10.998,-13.747 24.674,-36.966 C -75.469,370.196 -11.675,280.554 0,258.781 13.239,234.094 0,227.175 0,227.175"
   style="fill:#f74c00;fill-rule:nonzero"
   id="path269" />

        </g>

        <g
   transform="translate(795.856,464.937)"
   id="g275">
            <path
   d="m 0,159.631 c 1.575,-1.342 2.4,-2.139 2.4,-2.139 L -132.25,144.985 C -22.348,0 65.618,116.967 74.988,129.879 v 29.752 z"
   style="fill-rule:nonzero"
   id="path273" />

        </g>

        <g
   transform="translate(278.418,211.791)"
   id="g279">
            <path
   d="m 0,253.04 c 0,0 -111.096,-43.25 -129.876,-89.798 0,0 130.391,-103.717 -25.621,-213.886 l -4.229,140.417 c 0,0 -46.226,-44.594 -44.186,-122.683 0,0 -143.773,69.178 24.476,191.577 0,0 5.676,65.698 156.977,145.017 z"
   style="fill:#f74c00;fill-rule:nonzero"
   id="path277" />

        </g>

        <g
   transform="translate(729.948,492.523)"
   id="g283">
            <path
   d="m 0,-87.016 c 0,0 41.104,-45.009 82.21,0 0,0 32.297,60.013 0,90.016 0,0 -52.85,42.009 -82.21,0 0,0 -35.232,-33.006 0,-90.016"
   style="fill-rule:nonzero"
   id="path281" />

        </g>

        <g
   transform="translate(777.536,422.196)"
   id="g287">
            <path
   d="m 0,0.008 c 0,17.523 -10.329,31.73 -23.07,31.73 -12.739,0 -23.069,-14.207 -23.069,-31.73 0,-17.529 10.33,-31.738 23.069,-31.738 12.741,0 23.07,14.209 23.07,31.738"
   style="fill:#ffffff;fill-rule:nonzero"
   id="path285" />

        </g>

        <g
   transform="translate(546.49,486.263)"
   id="g291">
            <path
   d="m 0,-93.046 c 0,0 70.508,-31.219 89.753,38.463 0,0 20.159,81.218 -57.902,85.802 0,0 -99.541,-19.172 -31.851,-124.265"
   style="fill-rule:nonzero"
   id="path289" />

        </g>

        <g
   transform="translate(581.903,423.351)"
   id="g295">
            <path
   d="m 0,0.002 c 0,18.072 -10.653,32.729 -23.794,32.729 -13.137,0 -23.792,-14.657 -23.792,-32.729 0,-18.078 10.655,-32.731 23.792,-32.731 C -10.653,-32.729 0,-18.076 0,0.002"
   style="fill:#ffffff;fill-rule:nonzero"
   id="path293" />

        </g>

        <g
   transform="translate(1002.23,778.679)"
   id="g299">
            <path
   d="m 0,-296.808 c 0,0 -14.723,58.643 -106.292,120.267 l -25.678,6.018 c 0,0 -83.066,-151.481 -200.749,19.221 0,0 36.677,-21.354 135,4.65 0,0 -45.23,69.226 -136.342,67.099 0,0 87.313,104.749 220.18,-46.554 0,0 140.455,-54.315 151.845,-170.701 z"
   style="fill:#f74c00;fill-rule:nonzero"
   id="path297" />

        </g>

    </g>
    </g>
  </g>
</svg>
